<?xml version="1.0" encoding="utf-8"?>
<!-- Generator: Adobe Illustrator 16.0.0, SVG Export Plug-In . SVG Version: 6.00 Build 0)  -->
<!DOCTYPE svg PUBLIC "-//W3C//DTD SVG 1.1//EN" "http://www.w3.org/Graphics/SVG/1.1/DTD/svg11.dtd">
<svg version="1.1" id="Calque_1" xmlns="http://www.w3.org/2000/svg" xmlns:xlink="http://www.w3.org/1999/xlink" x="0px" y="0px"
	 width="2000px" height="1000px" viewBox="0 0 2000 1000" style="enable-background:new 0 0 2000 1000;" xml:space="preserve">
<g>
	<defs>
		<polygon id="SVGID_1_" points="240.569,763.277 334.362,706.318 609.975,355.756 569.436,294.34 413.341,525.668 		"/>
	</defs>
	<clipPath id="SVGID_2_">
		<use xlink:href="#SVGID_1_"  style="overflow:visible;"/>
	</clipPath>
	
		<linearGradient id="SVGID_3_" gradientUnits="userSpaceOnUse" x1="-4.882813e-004" y1="999.999" x2="0.9995" y2="999.999" gradientTransform="matrix(369.4057 0 0 -369.4057 240.5 369934.4375)">
		<stop  offset="0" style="stop-color:#CC1200"/>
		<stop  offset="0.2695" style="stop-color:#C81100"/>
		<stop  offset="0.5234" style="stop-color:#BD0E00"/>
		<stop  offset="0.7702" style="stop-color:#AA0900"/>
		<stop  offset="1" style="stop-color:#910300"/>
	</linearGradient>
	<rect x="240.569" y="294.34" style="clip-path:url(#SVGID_2_);fill:url(#SVGID_3_);" width="369.406" height="468.938"/>
</g>
<g>
	<defs>
		<polygon id="SVGID_4_" points="536.934,737.72 609.597,741.819 803.685,464.869 773.909,430.63 665.847,573.263 		"/>
	</defs>
	<clipPath id="SVGID_5_">
		<use xlink:href="#SVGID_4_"  style="overflow:visible;"/>
	</clipPath>
	
		<linearGradient id="SVGID_6_" gradientUnits="userSpaceOnUse" x1="4.882813e-004" y1="1000" x2="1.0005" y2="1000" gradientTransform="matrix(266.7509 0 0 -266.7509 536.875 267337.0938)">
		<stop  offset="0" style="stop-color:#CC1200"/>
		<stop  offset="0.2695" style="stop-color:#C81100"/>
		<stop  offset="0.5234" style="stop-color:#BD0E00"/>
		<stop  offset="0.7702" style="stop-color:#AA0900"/>
		<stop  offset="1" style="stop-color:#910300"/>
	</linearGradient>
	<rect x="536.934" y="430.63" style="clip-path:url(#SVGID_5_);fill:url(#SVGID_6_);" width="266.751" height="311.189"/>
</g>
<g>
	<defs>
		<polygon id="SVGID_7_" points="402.011,715.346 480.721,725.384 713.977,412.054 677.75,361.308 552.763,525.059 		"/>
	</defs>
	<clipPath id="SVGID_8_">
		<use xlink:href="#SVGID_7_"  style="overflow:visible;"/>
	</clipPath>
	
		<linearGradient id="SVGID_9_" gradientUnits="userSpaceOnUse" x1="-9.765625e-004" y1="1000" x2="0.999" y2="1000" gradientTransform="matrix(311.9651 0 0 -311.9651 402 312508.4063)">
		<stop  offset="0" style="stop-color:#CC1200"/>
		<stop  offset="0.2695" style="stop-color:#C81100"/>
		<stop  offset="0.5234" style="stop-color:#BD0E00"/>
		<stop  offset="0.7702" style="stop-color:#AA0900"/>
		<stop  offset="1" style="stop-color:#910300"/>
	</linearGradient>
	<rect x="402.011" y="361.308" style="clip-path:url(#SVGID_8_);fill:url(#SVGID_9_);" width="311.966" height="364.076"/>
</g>
<polygon style="fill:#FA2700;" points="1055.167,776.688 1017.507,776.688 773.909,430.629 812.131,461.152 919.073,590.971 "/>
<polygon style="fill:#FA2700;" points="1008.582,775.267 951.355,775.267 677.75,361.309 726.645,402.341 824.334,531.662 "/>
<polygon style="fill:#FA2700;" points="937.583,775.267 874.247,775.266 569.437,294.341 622.791,339.408 758.341,515.455 "/>
<polygon style="fill:#FF0909;" points="871.873,775.267 240.57,763.277 286.455,700.173 "/>
<path style="fill:#747474;" d="M1264.383,484.05c-2.078,8.212-7.703,15.585-20.41,15.585c-14.567,0-21.867-11.422-21.867-24.496
	c0-13.074,8.062-24.623,22.334-24.623c12.541,0,18.686,7.8,20.037,15.632h-8.896c-1.162-3.418-3.771-7.827-11.24-7.827
	c-8.373,0-12.988,7.122-12.988,16.451c0,9.322,4.361,17.105,13.047,17.105c6.553,0,9.334-2.993,11.164-7.828H1264.383z"/>
<path style="fill:#5B5B5B;" d="M1295.766,481.891c0,9.273-4.548,17.545-13.349,17.545c-7.975,0-12.936-7.405-12.936-17.479
	c0-9.54,4.666-17.479,13.23-17.479C1290.568,464.479,1295.766,471.417,1295.766,481.891z M1272.611,481.958
	c0,7.938,3.78,14.343,10.042,14.343c6.379,0,9.981-5.937,9.981-14.343c0-7.872-3.544-14.343-10.1-14.343
	C1275.801,467.614,1272.611,473.952,1272.611,481.958z M1325.18,488.896c0,3.269,0.059,8.472,0.059,9.74h-2.835
	c-0.118-0.867-0.177-3.069-0.177-5.804c-1.24,3.936-4.253,6.604-9.51,6.604c-4.253,0-9.688-1.868-9.688-12.075V465.28h2.895v21.281
	c0,4.87,1.358,9.606,7.206,9.606c6.616,0,9.097-4.203,9.097-13.743V465.28h2.953V488.896z M1334.097,465.28
	c4.784,15.277,8.093,25.684,9.215,29.953h0.059c0.649-2.468,3.958-12.408,9.688-29.953h3.13l-11.163,33.355h-3.544l-10.514-33.355
	H1334.097z M1362.625,482.358c0.059,8.605,3.898,13.942,9.568,13.942c5.553,0,7.442-3.536,8.506-6.271h3.012
	c-1.24,4.403-4.37,9.407-11.636,9.407c-8.979,0-12.463-8.739-12.463-17.212c0-9.54,4.193-17.745,12.817-17.745
	c9.096,0,11.99,8.873,11.99,15.144c0,0.934,0,1.868-0.059,2.735H1362.625z M1381.349,479.422L1381.349,479.422
	c-0.059-6.604-3.249-11.808-9.037-11.808c-6.084,0-8.86,4.804-9.51,11.808H1381.349z M1391.625,474.353
	c0-5.604-0.06-8.005-0.06-9.073h2.895c0.06,1.067,0.118,3.202,0.118,7.472c1.713-5.003,5.493-8.005,10.277-8.272v3.603
	c-6.143,0.467-10.277,5.27-10.277,13.209v17.345h-2.953V474.353z M1408.156,465.28h5.494v-10.407h2.953v10.407h7.028v3.135h-7.028
	v21.681c0,3.736,0.709,5.871,3.544,5.871c0.886,0,2.126-0.066,3.071-0.4v2.936c-1.004,0.467-2.422,0.601-3.662,0.601
	c-3.78,0-5.906-2.135-5.906-7.472v-23.216h-5.494V465.28z M1450.92,488.896c0,3.269,0.06,8.472,0.06,9.74h-2.835
	c-0.119-0.867-0.178-3.069-0.178-5.804c-1.24,3.936-4.253,6.604-9.51,6.604c-4.253,0-9.687-1.868-9.687-12.075V465.28h2.894v21.281
	c0,4.87,1.359,9.606,7.207,9.606c6.615,0,9.096-4.203,9.096-13.743V465.28h2.953V488.896z M1460.605,474.353
	c0-5.604-0.06-8.005-0.06-9.073h2.895c0.06,1.067,0.118,3.202,0.118,7.472c1.713-5.003,5.493-8.005,10.277-8.272v3.603
	c-6.143,0.467-10.277,5.27-10.277,13.209v17.345h-2.953V474.353z M1479.919,482.358c0.06,8.605,3.898,13.942,9.569,13.942
	c5.552,0,7.442-3.536,8.506-6.271h3.012c-1.24,4.403-4.371,9.407-11.636,9.407c-8.979,0-12.463-8.739-12.463-17.212
	c0-9.54,4.193-17.745,12.817-17.745c9.096,0,11.99,8.873,11.99,15.144c0,0.934,0,1.868-0.059,2.735H1479.919z M1498.644,479.422
	L1498.644,479.422c-0.06-6.604-3.249-11.808-9.037-11.808c-6.084,0-8.86,4.804-9.51,11.808H1498.644z"/>
<path style="fill:#A32000;" d="M1224.681,532.168h22.126c9.646,0,14.094,5.172,14.094,12.042c0,5.597-3.177,8.785-6.401,10.047
	c3.952,1.328,7.984,4.69,7.984,11.079c0,9.031-6.283,13.95-15.82,13.95h-21.982V532.168z M1244.897,550.932
	c5.006,0,6.923-2.153,6.923-5.56c0-4.152-2.862-5.653-6.793-5.653h-11.71v11.213H1244.897z M1233.317,571.781h12.028
	c4.228,0,7.892-1.42,7.892-6.739c0-4.373-2.809-6.605-7.943-6.605h-11.977V571.781z"/>
<path style="fill:#A32000;" d="M1293.758,562.541c0,9.273-4.549,17.545-13.35,17.545c-7.974,0-12.936-7.404-12.936-17.479
	c0-9.539,4.666-17.478,13.231-17.478C1288.56,545.13,1293.758,552.067,1293.758,562.541z M1270.604,562.607
	c0,7.939,3.78,14.344,10.041,14.344c6.379,0,9.982-5.938,9.982-14.344c0-7.871-3.544-14.343-10.101-14.343
	C1273.793,548.265,1270.604,554.603,1270.604,562.607z M1301.08,555.003c0-5.604-0.059-8.006-0.059-9.073h2.895
	c0.059,1.067,0.118,3.202,0.118,7.472c1.713-5.003,5.493-8.005,10.277-8.271v3.603c-6.143,0.467-10.277,5.27-10.277,13.208v17.346
	h-2.954V555.003z M1319.568,554.336c0-2.936,0-5.737-0.06-8.406h2.895c0.118,1.067,0.177,5.404,0.118,6.338
	c1.299-3.402,3.721-7.138,9.805-7.138c5.257,0,9.924,3.335,9.924,12.541v21.615h-2.954v-21.081c0-5.938-2.186-9.807-7.324-9.807
	c-7.028,0-9.45,6.604-9.45,13.876v17.012h-2.953V554.336z M1375.857,562.541c0,9.273-4.549,17.545-13.35,17.545
	c-7.974,0-12.936-7.404-12.936-17.479c0-9.539,4.666-17.478,13.23-17.478C1370.659,545.13,1375.857,552.067,1375.857,562.541z
	 M1352.703,562.607c0,7.939,3.78,14.344,10.041,14.344c6.379,0,9.982-5.938,9.982-14.344c0-7.871-3.544-14.343-10.101-14.343
	C1355.893,548.265,1352.703,554.603,1352.703,562.607z M1378.75,545.93h5.493v-10.406h2.953v10.406h7.029v3.136h-7.029v21.682
	c0,3.735,0.709,5.87,3.544,5.87c0.887,0,2.127-0.066,3.071-0.4v2.936c-1.004,0.467-2.421,0.601-3.662,0.601
	c-3.78,0-5.906-2.135-5.906-7.472v-23.216h-5.493V545.93z"/>
<path style="fill:#747474;" d="M1264.383,645.352c-2.078,8.212-7.703,15.585-20.41,15.585c-14.567,0-21.867-11.422-21.867-24.496
	c0-13.073,8.062-24.622,22.334-24.622c12.541,0,18.686,7.8,20.037,15.632h-8.896c-1.162-3.418-3.771-7.827-11.24-7.827
	c-8.373,0-12.988,7.122-12.988,16.45c0,9.322,4.361,17.105,13.047,17.105c6.553,0,9.334-2.993,11.164-7.827H1264.383z"/>
<path style="fill:#747474;" d="M1274.797,610.77v21.415c1.654-3.47,4.549-6.404,9.746-6.404c4.193,0,9.982,2.401,9.982,12.941
	v21.215h-2.953v-20.548c0-6.604-2.658-10.34-7.561-10.34c-5.848,0-9.215,4.069-9.215,12.275v18.612h-2.953V610.77H1274.797z
	 M1324.116,653.599c0,2.936,0.236,5.271,0.413,6.338h-2.835c-0.236-0.801-0.413-2.269-0.531-5.137
	c-1.004,2.468-3.604,5.937-9.687,5.937c-6.853,0-9.806-5.003-9.806-10.006c0-7.339,5.021-10.674,13.881-10.674
	c2.48,0,4.43,0,5.611,0v-3.402c0-3.336-0.886-7.806-7.62-7.806c-5.965,0-6.852,3.536-7.501,6.271h-2.953
	c0.354-3.669,2.362-9.339,10.514-9.339c6.733,0,10.514,3.202,10.514,10.54V653.599z M1321.222,642.925c-1.122,0-3.839,0-5.788,0
	c-6.557,0-10.632,1.935-10.632,7.672c0,4.203,2.657,7.071,6.792,7.071c8.447,0,9.628-6.338,9.628-13.542V642.925z M1333.86,635.653
	c0-5.604-0.059-8.006-0.059-9.073h2.894c0.06,1.067,0.118,3.202,0.118,7.472c1.713-5.003,5.493-8.005,10.278-8.271v3.603
	c-6.144,0.467-10.278,5.27-10.278,13.208v17.346h-2.953V635.653z M1355.301,655v18.278h-2.953v-38.492c0-2.735,0-5.671-0.059-8.206
	h2.894c0.118,1.268,0.118,3.27,0.118,6.005c1.831-4.003,5.08-6.805,10.396-6.805c6.97,0,11.813,6.604,11.813,16.61
	c0,12.009-5.67,18.346-12.817,18.346C1359.495,660.736,1356.777,658.135,1355.301,655z M1374.38,642.524
	c0-7.738-3.308-13.542-9.155-13.542c-7.147,0-10.101,5.069-10.101,14.143c0,8.939,2.304,14.477,9.687,14.477
	C1370.953,657.602,1374.38,651.73,1374.38,642.524z M1385.896,643.658c0.06,8.606,3.898,13.943,9.569,13.943
	c5.552,0,7.441-3.536,8.505-6.271h3.013c-1.24,4.403-4.371,9.406-11.637,9.406c-8.978,0-12.463-8.738-12.463-17.211
	c0-9.54,4.194-17.745,12.818-17.745c9.096,0,11.99,8.872,11.99,15.144c0,0.934,0,1.867-0.06,2.734H1385.896z M1404.62,640.724
	L1404.62,640.724c-0.06-6.604-3.249-11.809-9.038-11.809c-6.083,0-8.859,4.804-9.51,11.809H1404.62z M1414.896,634.986
	c0-2.936,0-5.737-0.059-8.406h2.894c0.119,1.067,0.178,5.404,0.119,6.338c1.299-3.402,3.721-7.138,9.805-7.138
	c5.257,0,9.923,3.335,9.923,12.541v21.615h-2.953v-21.081c0-5.938-2.186-9.807-7.324-9.807c-7.029,0-9.45,6.604-9.45,13.876v17.012
	h-2.954V634.986z M1442.649,626.58h5.493v-10.406h2.953v10.406h7.029v3.136h-7.029v21.682c0,3.735,0.709,5.87,3.545,5.87
	c0.886,0,2.126-0.066,3.071-0.4v2.936c-1.005,0.467-2.422,0.601-3.662,0.601c-3.78,0-5.907-2.135-5.907-7.472v-23.216h-5.493V626.58
	z M1464.444,643.658c0.06,8.606,3.898,13.943,9.569,13.943c5.552,0,7.442-3.536,8.505-6.271h3.013
	c-1.24,4.403-4.371,9.406-11.636,9.406c-8.979,0-12.464-8.738-12.464-17.211c0-9.54,4.194-17.745,12.818-17.745
	c9.096,0,11.99,8.872,11.99,15.144c0,0.934,0,1.867-0.06,2.734H1464.444z M1483.169,640.724L1483.169,640.724
	c-0.06-6.604-3.249-11.809-9.037-11.809c-6.084,0-8.86,4.804-9.51,11.809H1483.169z"/>
<path style="fill:#5B5B5B;" d="M1127.879,784V294.864V784z"/>
<g>
	<defs>
		<rect id="SVGID_10_" width="2000" height="1000"/>
	</defs>
	<clipPath id="SVGID_11_">
		<use xlink:href="#SVGID_10_"  style="overflow:visible;"/>
	</clipPath>
	<path style="clip-path:url(#SVGID_11_);fill:#666666;" d="M1127.879,784c-2.069-40.762-3.152-81.522-3.887-122.284
		c-0.732-40.761-1.12-81.522-1.112-122.283c-0.026-40.762,0.372-81.522,1.097-122.284c0.732-40.761,1.82-81.523,3.902-122.284
		c2.081,40.761,3.169,81.523,3.9,122.284c0.726,40.761,1.123,81.522,1.098,122.284c0.008,40.761-0.38,81.522-1.111,122.283
		C1131.029,702.478,1129.947,743.238,1127.879,784"/>
</g>
</svg>
